<svg viewBox="0 0 200 200" fill="none" xmlns="http://www.w3.org/2000/svg"><path fill="#ABADA8" d="M0 0h200v200H0z"/><path d="M29 130h26.126v-6.047H29V130ZM72.068 102.787l5.685 1.134c4.983 1.008 9.582 2.898 9.582 7.622 0 4.41-4.216 7.244-10.22 7.244-6.516 0-10.796-3.212-12.137-9.449h-7.154c1.086 9.575 8.304 15.434 19.035 15.434 9.007 0 17.822-4.725 17.822-13.796 0-9.197-8.113-11.969-15.522-13.48l-5.494-1.134c-3.96-.82-7.026-2.772-7.026-6.551 0-4.788 5.813-6.363 9.198-6.363 4.407 0 9.454 1.638 10.923 7.055h7.026c-1.788-9.197-9.134-13.04-17.63-13.04-7.793 0-16.927 4.032-16.927 12.662 0 7.686 6.26 11.339 12.84 12.662ZM138.791 115.197l-8.56-36.914h-8.495l-7.985 36.914-8.176-36.914h-7.984l11.37 45.67h8.751l8.24-36.347 8.368 36.347h8.751l11.178-45.67h-7.665l-7.793 36.914ZM159.833 71.924v5.983h1.101v-5.983h2.241V71h-5.593v.924h2.251ZM166.914 77.907h1.14l1.864-5.811v5.81H171V71h-1.768l-1.748 5.64-1.749-5.64h-1.768v6.907h1.082v-5.811l1.865 5.81Z" fill="#242B2D"/></svg>